<?xml version="1.0" standalone="no"?><svg xmlns="http://www.w3.org/2000/svg" viewBox="0 0 1440 320"><path fill="#0099ff" fill-opacity="1" d="M0,288L20,266.7C40,245,80,203,120,202.7C160,203,200,245,240,250.7C280,256,320,224,360,213.3C400,203,440,213,480,224C520,235,560,245,600,250.7C640,256,680,256,720,234.7C760,213,800,171,840,138.7C880,107,920,85,960,85.3C1000,85,1040,107,1080,133.3C1120,160,1160,192,1200,181.3C1240,171,1280,117,1320,122.7C1360,128,1400,192,1420,224L1440,256L1440,320L1420,320C1400,320,1360,320,1320,320C1280,320,1240,320,1200,320C1160,320,1120,320,1080,320C1040,320,1000,320,960,320C920,320,880,320,840,320C800,320,760,320,720,320C680,320,640,320,600,320C560,320,520,320,480,320C440,320,400,320,360,320C320,320,280,320,240,320C200,320,160,320,120,320C80,320,40,320,20,320L0,320Z"></path></svg>